<?xml version="1.0" encoding="UTF-8"?>
<svg xmlns="http://www.w3.org/2000/svg" xmlns:xlink="http://www.w3.org/1999/xlink" width="1440pt" height="809.999993pt" viewBox="0 0 1440 809.999993" version="1.2">
<defs>
<filter id="alpha" filterUnits="objectBoundingBox" x="0%" y="0%" width="100%" height="100%">
  <feColorMatrix type="matrix" in="SourceGraphic" values="0 0 0 0 1 0 0 0 0 1 0 0 0 0 1 0 0 0 1 0"/>
</filter>
<mask id="mask0">
  <g filter="url(#alpha)">
<rect x="0" y="0" width="1440" height="809.999993" style="fill:rgb(0%,0%,0%);fill-opacity:0.3569;stroke:none;"/>
  </g>
</mask>
<clipPath id="clip2">
  <path d="M 0.761719 1 L 48.519531 1 L 48.519531 48.519531 L 0.761719 48.519531 Z M 0.761719 1 "/>
</clipPath>
<clipPath id="clip1">
  <rect x="0" y="0" width="49" height="49"/>
</clipPath>
<g id="surface5" clip-path="url(#clip1)">
<g clip-path="url(#clip2)" clip-rule="nonzero">
<path style=" stroke:none;fill-rule:nonzero;fill:rgb(21.958923%,71.369934%,100%);fill-opacity:1;" d="M 47.679688 24.714844 C 47.679688 22.242188 48.914062 19.617188 48.152344 17.390625 C 47.375 15.078125 44.738281 13.65625 43.289062 11.730469 C 41.820312 9.789062 41.210938 6.953125 39.191406 5.542969 C 37.191406 4.148438 34.203125 4.460938 31.800781 3.703125 C 29.480469 2.984375 27.269531 1.011719 24.699219 1.011719 C 22.128906 1.011719 19.910156 2.972656 17.59375 3.703125 C 15.195312 4.453125 12.199219 4.140625 10.195312 5.542969 C 8.175781 6.953125 7.570312 9.789062 6.097656 11.730469 C 4.636719 13.65625 2.011719 15.078125 1.222656 17.390625 C 0.476562 19.617188 1.699219 22.242188 1.699219 24.714844 C 1.699219 27.1875 0.464844 29.816406 1.222656 32.042969 C 2 34.355469 4.636719 35.777344 6.089844 37.699219 C 7.558594 39.640625 8.167969 42.476562 10.1875 43.886719 C 12.1875 45.292969 15.175781 44.976562 17.585938 45.726562 C 19.910156 46.449219 22.117188 48.417969 24.6875 48.417969 C 27.257812 48.417969 29.480469 46.457031 31.792969 45.726562 C 34.191406 44.976562 37.191406 45.292969 39.191406 43.886719 C 41.210938 42.476562 41.820312 39.640625 43.289062 37.699219 C 44.75 35.777344 47.375 34.355469 48.152344 32.042969 C 48.914062 29.804688 47.679688 27.179688 47.679688 24.714844 Z M 47.679688 24.714844 "/>
</g>
</g>
<mask id="mask1">
  <g filter="url(#alpha)">
<rect x="0" y="0" width="1440" height="809.999993" style="fill:rgb(0%,0%,0%);fill-opacity:0.3569;stroke:none;"/>
  </g>
</mask>
<clipPath id="clip4">
  <path d="M 0.761719 0.558594 L 48.519531 0.558594 L 48.519531 48.320312 L 0.761719 48.320312 Z M 0.761719 0.558594 "/>
</clipPath>
<clipPath id="clip3">
  <rect x="0" y="0" width="49" height="49"/>
</clipPath>
<g id="surface8" clip-path="url(#clip3)">
<g clip-path="url(#clip4)" clip-rule="nonzero">
<path style=" stroke:none;fill-rule:nonzero;fill:rgb(21.958923%,71.369934%,100%);fill-opacity:1;" d="M 47.679688 24.382812 C 47.679688 21.90625 48.914062 19.28125 48.152344 17.054688 C 47.375 14.742188 44.738281 13.320312 43.289062 11.398438 C 41.820312 9.453125 41.210938 6.621094 39.191406 5.207031 C 37.191406 3.816406 34.203125 4.128906 31.800781 3.371094 C 29.480469 2.648438 27.269531 0.679688 24.699219 0.679688 C 22.128906 0.679688 19.910156 2.640625 17.59375 3.371094 C 15.195312 4.117188 12.199219 3.804688 10.195312 5.207031 C 8.175781 6.621094 7.570312 9.453125 6.097656 11.398438 C 4.636719 13.320312 2.011719 14.742188 1.222656 17.054688 C 0.476562 19.28125 1.699219 21.90625 1.699219 24.382812 C 1.699219 26.855469 0.464844 29.480469 1.222656 31.707031 C 2 34.019531 4.636719 35.441406 6.089844 37.367188 C 7.558594 39.308594 8.167969 42.140625 10.1875 43.554688 C 12.1875 44.957031 15.175781 44.644531 17.585938 45.394531 C 19.910156 46.113281 22.117188 48.085938 24.6875 48.085938 C 27.257812 48.085938 29.480469 46.121094 31.792969 45.394531 C 34.191406 44.644531 37.191406 44.957031 39.191406 43.554688 C 41.210938 42.140625 41.820312 39.308594 43.289062 37.367188 C 44.75 35.441406 47.375 34.019531 48.152344 31.707031 C 48.914062 29.472656 47.679688 26.84375 47.679688 24.382812 Z M 47.679688 24.382812 "/>
</g>
</g>
<mask id="mask2">
  <g filter="url(#alpha)">
<rect x="0" y="0" width="1440" height="809.999993" style="fill:rgb(0%,0%,0%);fill-opacity:0.6275;stroke:none;"/>
  </g>
</mask>
<clipPath id="clip6">
  <path d="M 0 0.121094 L 24 0.121094 L 24 47.878906 L 0 47.878906 Z M 0 0.121094 "/>
</clipPath>
<clipPath id="clip5">
  <rect x="0" y="0" width="24" height="48"/>
</clipPath>
<g id="surface11" clip-path="url(#clip5)">
<g clip-path="url(#clip6)" clip-rule="nonzero">
<path style=" stroke:none;fill-rule:nonzero;fill:rgb(21.958923%,71.369934%,100%);fill-opacity:1;" d="M 23 23.992188 C 23 21.515625 24.234375 18.890625 23.476562 16.664062 C 22.695312 14.351562 20.058594 12.929688 18.609375 11.007812 C 17.140625 9.0625 16.53125 6.230469 14.511719 4.816406 C 12.511719 3.425781 9.523438 3.738281 7.121094 2.980469 C 4.800781 2.257812 2.589844 0.289062 0.0195312 0.289062 C -2.550781 0.289062 -4.769531 2.25 -7.085938 2.980469 C -9.484375 3.726562 -12.480469 3.414062 -14.484375 4.816406 C -16.503906 6.230469 -17.109375 9.0625 -18.582031 11.007812 C -20.042969 12.929688 -22.667969 14.351562 -23.457031 16.664062 C -24.203125 18.890625 -22.980469 21.515625 -22.980469 23.992188 C -22.980469 26.464844 -24.214844 29.089844 -23.457031 31.316406 C -22.679688 33.628906 -20.042969 35.050781 -18.589844 36.972656 C -17.121094 38.917969 -16.511719 41.75 -14.492188 43.164062 C -12.492188 44.566406 -9.503906 44.253906 -7.09375 45 C -4.769531 45.722656 -2.5625 47.695312 0.0078125 47.695312 C 2.578125 47.695312 4.800781 45.730469 7.113281 45 C 9.511719 44.253906 12.511719 44.566406 14.511719 43.164062 C 16.53125 41.75 17.140625 38.917969 18.609375 36.972656 C 20.070312 35.050781 22.695312 33.628906 23.476562 31.316406 C 24.234375 29.078125 23 26.453125 23 23.992188 Z M 23 23.992188 "/>
</g>
</g>
<mask id="mask3">
  <g filter="url(#alpha)">
<rect x="0" y="0" width="1440" height="809.999993" style="fill:rgb(0%,0%,0%);fill-opacity:0.1569;stroke:none;"/>
  </g>
</mask>
<clipPath id="clip8">
  <path d="M 1 0.121094 L 48.71875 0.121094 L 48.71875 47.878906 L 1 47.878906 Z M 1 0.121094 "/>
</clipPath>
<clipPath id="clip7">
  <rect x="0" y="0" width="49" height="48"/>
</clipPath>
<g id="surface14" clip-path="url(#clip7)">
<g clip-path="url(#clip8)" clip-rule="nonzero">
<path style=" stroke:none;fill-rule:nonzero;fill:rgb(21.958923%,71.369934%,100%);fill-opacity:1;" d="M 47.71875 23.976562 C 47.71875 21.503906 48.953125 18.878906 48.191406 16.648438 C 47.414062 14.335938 44.777344 12.914062 43.328125 10.992188 C 41.855469 9.050781 41.25 6.214844 39.230469 4.804688 C 37.226562 3.410156 34.242188 3.722656 31.839844 2.964844 C 29.515625 2.246094 27.308594 0.273438 24.738281 0.273438 C 22.167969 0.273438 19.945312 2.234375 17.632812 2.964844 C 15.234375 3.714844 12.234375 3.402344 10.234375 4.804688 C 8.214844 6.214844 7.609375 9.050781 6.136719 10.992188 C 4.675781 12.914062 2.050781 14.335938 1.261719 16.648438 C 0.511719 18.878906 1.738281 21.503906 1.738281 23.976562 C 1.738281 26.449219 0.503906 29.074219 1.261719 31.300781 C 2.039062 33.613281 4.675781 35.035156 6.128906 36.960938 C 7.597656 38.902344 8.207031 41.738281 10.226562 43.148438 C 12.226562 44.550781 15.214844 44.238281 17.625 44.988281 C 19.945312 45.707031 22.15625 47.679688 24.726562 47.679688 C 27.296875 47.679688 29.515625 45.71875 31.832031 44.988281 C 34.230469 44.238281 37.226562 44.550781 39.230469 43.148438 C 41.25 41.738281 41.855469 38.902344 43.328125 36.960938 C 44.789062 35.035156 47.414062 33.613281 48.191406 31.300781 C 48.953125 29.066406 47.71875 26.441406 47.71875 23.976562 Z M 47.71875 23.976562 "/>
</g>
</g>
<mask id="mask4">
  <g filter="url(#alpha)">
<rect x="0" y="0" width="1440" height="809.999993" style="fill:rgb(0%,0%,0%);fill-opacity:0.1569;stroke:none;"/>
  </g>
</mask>
<clipPath id="clip10">
  <path d="M 0.878906 0 L 48.640625 0 L 48.640625 24 L 0.878906 24 Z M 0.878906 0 "/>
</clipPath>
<clipPath id="clip9">
  <rect x="0" y="0" width="49" height="24"/>
</clipPath>
<g id="surface17" clip-path="url(#clip9)">
<g clip-path="url(#clip10)" clip-rule="nonzero">
<path style=" stroke:none;fill-rule:nonzero;fill:rgb(21.958923%,71.369934%,100%);fill-opacity:1;" d="M 47.644531 23.992188 C 47.644531 21.515625 48.875 18.890625 48.117188 16.664062 C 47.339844 14.351562 44.703125 12.929688 43.25 11.007812 C 41.78125 9.0625 41.175781 6.230469 39.152344 4.816406 C 37.152344 3.425781 34.164062 3.738281 31.765625 2.980469 C 29.441406 2.257812 27.230469 0.289062 24.660156 0.289062 C 22.089844 0.289062 19.871094 2.25 17.558594 2.980469 C 15.15625 3.726562 12.160156 3.414062 10.160156 4.816406 C 8.140625 6.230469 7.53125 9.0625 6.0625 11.007812 C 4.601562 12.929688 1.972656 14.351562 1.1875 16.664062 C 0.4375 18.890625 1.660156 21.515625 1.660156 23.992188 C 1.660156 26.464844 0.429688 29.089844 1.1875 31.316406 C 1.964844 33.628906 4.601562 35.050781 6.050781 36.972656 C 7.523438 38.917969 8.128906 41.75 10.148438 43.164062 C 12.152344 44.566406 15.136719 44.253906 17.546875 45 C 19.871094 45.722656 22.082031 47.695312 24.652344 47.695312 C 27.222656 47.695312 29.441406 45.730469 31.753906 45 C 34.15625 44.253906 37.152344 44.566406 39.152344 43.164062 C 41.175781 41.75 41.78125 38.917969 43.25 36.972656 C 44.710938 35.050781 47.339844 33.628906 48.117188 31.316406 C 48.875 29.078125 47.644531 26.453125 47.644531 23.992188 Z M 47.644531 23.992188 "/>
</g>
</g>
<mask id="mask5">
  <g filter="url(#alpha)">
<rect x="0" y="0" width="1440" height="809.999993" style="fill:rgb(0%,0%,0%);fill-opacity:0.1569;stroke:none;"/>
  </g>
</mask>
<clipPath id="clip12">
  <path d="M 0.601562 1 L 48.359375 1 L 48.359375 48.71875 L 0.601562 48.71875 Z M 0.601562 1 "/>
</clipPath>
<clipPath id="clip11">
  <rect x="0" y="0" width="49" height="49"/>
</clipPath>
<g id="surface20" clip-path="url(#clip11)">
<g clip-path="url(#clip12)" clip-rule="nonzero">
<path style=" stroke:none;fill-rule:nonzero;fill:rgb(21.958923%,71.369934%,100%);fill-opacity:1;" d="M 47.445312 24.851562 C 47.445312 22.378906 48.675781 19.753906 47.917969 17.527344 C 47.140625 15.214844 44.503906 13.792969 43.054688 11.871094 C 41.582031 9.925781 40.976562 7.09375 38.957031 5.679688 C 36.953125 4.289062 33.964844 4.601562 31.566406 3.84375 C 29.242188 3.121094 27.035156 1.152344 24.464844 1.152344 C 21.894531 1.152344 19.671875 3.113281 17.359375 3.84375 C 14.960938 4.589844 11.960938 4.277344 9.960938 5.679688 C 7.941406 7.09375 7.332031 9.925781 5.863281 11.871094 C 4.402344 13.792969 1.777344 15.214844 0.988281 17.527344 C 0.238281 19.753906 1.460938 22.378906 1.460938 24.851562 C 1.460938 27.328125 0.230469 29.953125 0.988281 32.179688 C 1.765625 34.492188 4.402344 35.914062 5.855469 37.835938 C 7.324219 39.78125 7.929688 42.613281 9.953125 44.027344 C 11.953125 45.429688 14.941406 45.117188 17.347656 45.863281 C 19.671875 46.585938 21.882812 48.554688 24.453125 48.554688 C 27.023438 48.554688 29.242188 46.59375 31.558594 45.863281 C 33.957031 45.117188 36.953125 45.429688 38.957031 44.027344 C 40.976562 42.613281 41.582031 39.78125 43.054688 37.835938 C 44.511719 35.914062 47.140625 34.492188 47.917969 32.179688 C 48.675781 29.941406 47.445312 27.316406 47.445312 24.851562 Z M 47.445312 24.851562 "/>
</g>
</g>
<mask id="mask6">
  <g filter="url(#alpha)">
<rect x="0" y="0" width="1440" height="809.999993" style="fill:rgb(0%,0%,0%);fill-opacity:0.3569;stroke:none;"/>
  </g>
</mask>
<clipPath id="clip14">
  <path d="M 0 0.359375 L 47.761719 0.359375 L 47.761719 48.359375 L 0 48.359375 Z M 0 0.359375 "/>
</clipPath>
<clipPath id="clip13">
  <rect x="0" y="0" width="48" height="49"/>
</clipPath>
<g id="surface23" clip-path="url(#clip13)">
<g clip-path="url(#clip14)" clip-rule="nonzero">
<path style=" stroke:none;fill-rule:nonzero;fill:rgb(21.958923%,71.369934%,100%);fill-opacity:1;" d="M 46.785156 24.371094 C 46.785156 21.898438 48.019531 19.273438 47.257812 17.046875 C 46.480469 14.734375 43.84375 13.3125 42.394531 11.386719 C 40.925781 9.445312 40.316406 6.613281 38.296875 5.199219 C 36.296875 3.804688 33.308594 4.117188 30.90625 3.359375 C 28.585938 2.640625 26.375 0.667969 23.804688 0.667969 C 21.234375 0.667969 19.015625 2.632812 16.699219 3.359375 C 14.300781 4.109375 11.304688 3.796875 9.300781 5.199219 C 7.28125 6.613281 6.675781 9.445312 5.203125 11.386719 C 3.742188 13.3125 1.117188 14.734375 0.328125 17.046875 C -0.417969 19.273438 0.804688 21.898438 0.804688 24.371094 C 0.804688 26.847656 -0.429688 29.472656 0.328125 31.699219 C 1.105469 34.011719 3.742188 35.433594 5.195312 37.355469 C 6.664062 39.300781 7.273438 42.132812 9.292969 43.546875 C 11.292969 44.949219 14.28125 44.636719 16.691406 45.382812 C 19.015625 46.105469 21.222656 48.074219 23.792969 48.074219 C 26.363281 48.074219 28.585938 46.113281 30.898438 45.382812 C 33.296875 44.636719 36.296875 44.949219 38.296875 43.546875 C 40.316406 42.132812 40.925781 39.300781 42.394531 37.355469 C 43.855469 35.433594 46.480469 34.011719 47.257812 31.699219 C 48.019531 29.460938 46.785156 26.835938 46.785156 24.371094 Z M 46.785156 24.371094 "/>
</g>
</g>
<mask id="mask7">
  <g filter="url(#alpha)">
<rect x="0" y="0" width="1440" height="809.999993" style="fill:rgb(0%,0%,0%);fill-opacity:0.6275;stroke:none;"/>
  </g>
</mask>
<clipPath id="clip16">
  <path d="M 0.238281 0.359375 L 48 0.359375 L 48 48 L 0.238281 48 Z M 0.238281 0.359375 "/>
</clipPath>
<clipPath id="clip15">
  <rect x="0" y="0" width="48" height="49"/>
</clipPath>
<g id="surface26" clip-path="url(#clip15)">
<g clip-path="url(#clip16)" clip-rule="nonzero">
<path style=" stroke:none;fill-rule:nonzero;fill:rgb(21.958923%,71.369934%,100%);fill-opacity:1;" d="M 47.214844 24.277344 C 47.214844 21.804688 48.449219 19.179688 47.691406 16.953125 C 46.910156 14.640625 44.273438 13.21875 42.824219 11.292969 C 41.355469 9.351562 40.746094 6.515625 38.726562 5.105469 C 36.726562 3.710938 33.738281 4.023438 31.339844 3.265625 C 29.015625 2.546875 26.804688 0.574219 24.234375 0.574219 C 21.664062 0.574219 19.445312 2.535156 17.128906 3.265625 C 14.730469 4.015625 11.734375 3.703125 9.730469 5.105469 C 7.710938 6.515625 7.105469 9.351562 5.632812 11.292969 C 4.171875 13.21875 1.546875 14.640625 0.757812 16.953125 C 0.0117188 19.179688 1.234375 21.804688 1.234375 24.277344 C 1.234375 26.75 0 29.378906 0.757812 31.605469 C 1.535156 33.917969 4.171875 35.339844 5.625 37.261719 C 7.09375 39.203125 7.703125 42.039062 9.722656 43.449219 C 11.722656 44.851562 14.710938 44.539062 17.121094 45.289062 C 19.445312 46.007812 21.652344 47.980469 24.222656 47.980469 C 26.792969 47.980469 29.015625 46.019531 31.328125 45.289062 C 33.726562 44.539062 36.726562 44.851562 38.726562 43.449219 C 40.746094 42.039062 41.355469 39.203125 42.824219 37.261719 C 44.285156 35.339844 46.910156 33.917969 47.691406 31.605469 C 48.449219 29.367188 47.214844 26.742188 47.214844 24.277344 Z M 47.214844 24.277344 "/>
</g>
</g>
<mask id="mask8">
  <g filter="url(#alpha)">
<rect x="0" y="0" width="1440" height="809.999993" style="fill:rgb(0%,0%,0%);fill-opacity:0.6275;stroke:none;"/>
  </g>
</mask>
<clipPath id="clip18">
  <path d="M 0.359375 1 L 48 1 L 48 48.71875 L 0.359375 48.71875 Z M 0.359375 1 "/>
</clipPath>
<clipPath id="clip17">
  <rect x="0" y="0" width="49" height="49"/>
</clipPath>
<g id="surface29" clip-path="url(#clip17)">
<g clip-path="url(#clip18)" clip-rule="nonzero">
<path style=" stroke:none;fill-rule:nonzero;fill:rgb(21.958923%,71.369934%,100%);fill-opacity:1;" d="M 47.214844 24.851562 C 47.214844 22.378906 48.449219 19.753906 47.691406 17.527344 C 46.910156 15.214844 44.273438 13.792969 42.824219 11.871094 C 41.355469 9.925781 40.746094 7.09375 38.726562 5.679688 C 36.726562 4.289062 33.738281 4.601562 31.339844 3.84375 C 29.015625 3.121094 26.804688 1.152344 24.234375 1.152344 C 21.664062 1.152344 19.445312 3.113281 17.128906 3.84375 C 14.730469 4.589844 11.734375 4.277344 9.730469 5.679688 C 7.710938 7.09375 7.105469 9.925781 5.632812 11.871094 C 4.171875 13.792969 1.546875 15.214844 0.757812 17.527344 C 0.0117188 19.753906 1.234375 22.378906 1.234375 24.851562 C 1.234375 27.328125 0 29.953125 0.757812 32.179688 C 1.535156 34.492188 4.171875 35.914062 5.625 37.835938 C 7.09375 39.78125 7.703125 42.613281 9.722656 44.027344 C 11.722656 45.429688 14.710938 45.117188 17.121094 45.863281 C 19.445312 46.585938 21.652344 48.554688 24.222656 48.554688 C 26.792969 48.554688 29.015625 46.59375 31.328125 45.863281 C 33.726562 45.117188 36.726562 45.429688 38.726562 44.027344 C 40.746094 42.613281 41.355469 39.78125 42.824219 37.835938 C 44.285156 35.914062 46.910156 34.492188 47.691406 32.179688 C 48.449219 29.941406 47.214844 27.316406 47.214844 24.851562 Z M 47.214844 24.851562 "/>
</g>
</g>
</defs>
<g id="surface1">
<use xlink:href="#surface5" transform="matrix(1,0,0,1,341,173)" mask="url(#mask0)"/>
<use xlink:href="#surface8" transform="matrix(1,0,0,1,341,454)" mask="url(#mask1)"/>
<use xlink:href="#surface11" transform="matrix(1,0,0,1,0,57)" mask="url(#mask2)"/>
<use xlink:href="#surface14" transform="matrix(1,0,0,1,606,525)" mask="url(#mask3)"/>
<use xlink:href="#surface17" transform="matrix(1,0,0,1,806,786)" mask="url(#mask4)"/>
<use xlink:href="#surface20" transform="matrix(1,0,0,1,465,714)" mask="url(#mask5)"/>
<use xlink:href="#surface23" transform="matrix(1,0,0,1,672,261)" mask="url(#mask6)"/>
<use xlink:href="#surface26" transform="matrix(1,0,0,1,0.000000000000000028,357)" mask="url(#mask7)"/>
<use xlink:href="#surface29" transform="matrix(1,0,0,1,81,714)" mask="url(#mask8)"/>
</g>
</svg>
