<?xml version="1.0" encoding="UTF-8"?>
<svg xmlns="http://www.w3.org/2000/svg" xmlns:xlink="http://www.w3.org/1999/xlink" width="400pt" height="390pt" viewBox="0 0 400 390" version="1.1">
<defs>
<radialGradient id="radial0" gradientUnits="userSpaceOnUse" cx="-183.69" cy="328.972" fx="-183.69" fy="328.972" r="0.76" gradientTransform="matrix(366.667462,0,0,354.927992,67490.575008,-116664.755558)">
<stop offset="0" style="stop-color:rgb(26.666667%,18.431373%,33.333333%);stop-opacity:0.980392;"/>
<stop offset="1" style="stop-color:rgb(7.058824%,0%,17.254902%);stop-opacity:1;"/>
</radialGradient>
</defs>
<g id="surface1">
<path style=" stroke:none;fill-rule:nonzero;fill:url(#radial0);" d="M 16.667969 16.703125 L 383.335938 16.703125 L 383.335938 373.296875 L 16.667969 373.296875 Z M 16.667969 16.703125 "/>
<path style=" stroke:none;fill-rule:nonzero;fill:rgb(84.705882%,63.137255%,100%);fill-opacity:1;" d="M 16.667969 16.703125 L 383.335938 16.703125 L 383.335938 373.296875 L 16.667969 373.296875 Z M 0 389.960938 L 400 389.960938 L 400 0.0390625 L 0 0.0390625 Z M 283 188 C 291.5 188 294.5 188 295.332031 187.667969 C 295.332031 186.503906 295.667969 185.667969 295.667969 184.835938 C 295.667969 175.835938 291.332031 159.175781 274 159.175781 C 258 159.175781 251.167969 173.171875 249.5 188 Z M 249.167969 210.828125 C 249.5 233.324219 260.167969 248.488281 285.5 248.488281 C 295.332031 248.488281 303.832031 247.15625 312.667969 243.324219 C 313.835938 242.824219 314.667969 242.992188 314.667969 244.492188 L 314.667969 265.320312 C 314.667969 266.984375 314.167969 267.820312 313 268.652344 C 304.167969 272.984375 293.167969 274.984375 279.5 274.984375 C 235.5 274.984375 219 242.492188 219 206.332031 C 219 167.007812 239.335938 134.847656 275.167969 134.847656 C 311.5 134.847656 324.167969 165.339844 324.167969 190.167969 C 324.167969 198.167969 323.667969 204.667969 322.835938 207.832031 C 322.503906 209.164062 322.003906 209.664062 320.667969 210 C 317.335938 210.5 307.5 211.164062 292.835938 211.164062 L 249.167969 211.164062 Z M 159.835938 193.832031 C 155.167969 175.335938 143.832031 135.011719 139.667969 115.515625 L 139.332031 115.515625 C 135.835938 135.011719 126.667969 168.003906 119.832031 193.832031 Z M 113 220.828125 L 99.832031 270.652344 C 99.5 271.984375 99 272.484375 97.332031 272.484375 L 72.832031 272.484375 C 71.167969 272.484375 70.832031 271.984375 71.167969 269.984375 L 118.5 104.519531 C 119.332031 101.519531 119.832031 99.1875 120.167969 90.855469 C 120.167969 89.6875 120.667969 89.1875 121.5 89.1875 L 156.5 89.1875 C 157.664062 89.1875 158.164062 89.523438 158.5 90.855469 L 211.5 270.320312 C 211.832031 271.652344 211.5 272.484375 210.167969 272.484375 L 182.667969 272.484375 C 181.332031 272.484375 180.5 271.984375 180.167969 270.820312 L 166.5 220.828125 Z M 113 220.828125 "/>
</g>
</svg>
