<?xml version="1.0" encoding="UTF-8"?>
<svg xmlns="http://www.w3.org/2000/svg" xmlns:xlink="http://www.w3.org/1999/xlink" width="400pt" height="400pt" viewBox="0 0 400 400" version="1.1">
<g id="surface1">
<path style=" stroke:none;fill-rule:nonzero;fill:rgb(13.72549%,74.509804%,78.039216%);fill-opacity:1;" d="M 400 200 C 400 310.457031 310.457031 400 200 400 C 89.542969 400 0 310.457031 0 200 C 0 89.542969 89.542969 0 200 0 C 310.457031 0 400 89.542969 400 200 Z M 400 200 "/>
<path style=" stroke:none;fill-rule:nonzero;fill:rgb(100%,100%,100%);fill-opacity:1;" d="M 204.65625 203.371094 C 210.503906 198.234375 215.253906 193.394531 221.515625 190.753906 C 225.1875 189.21875 229.246094 187.039062 232.734375 190.410156 C 236.21875 193.785156 234.019531 197.476562 232.960938 201.101562 C 230.851562 208.371094 228.71875 215.667969 226.792969 222.984375 C 226.21875 225.117188 225.253906 227.570312 227.433594 229.476562 C 229.613281 231.378906 232.34375 230.117188 234.5 229.015625 C 242.480469 224.933594 248.972656 220.09375 247.964844 209.359375 C 247.367188 202.9375 247.964844 196.101562 253.90625 191.511719 C 256.199219 189.699219 258.976562 187.589844 261.886719 189.609375 C 264.800781 191.628906 262.714844 194.195312 261.886719 196.492188 C 259.070312 205.140625 258.285156 214.324219 259.59375 223.328125 C 259.890625 225.347656 259.59375 228.261719 261.453125 228.996094 C 264 229.957031 265.144531 226.699219 266.773438 225.371094 C 268.402344 224.039062 269.503906 222.160156 270.925781 220.597656 C 274.6875 216.492188 276.75 213.210938 271.75 207.59375 C 265.949219 201.101562 267.691406 188.394531 273.402344 182.359375 C 276.621094 178.492188 281.945312 177.105469 286.636719 178.917969 C 291.617188 180.730469 293.246094 185.019531 293.382812 190.042969 C 293.519531 195.6875 291.089844 200.640625 289.183594 206.101562 C 294.734375 207.5 298.175781 204.382812 301.296875 201.007812 C 308.820312 192.84375 317.535156 187.660156 329.097656 188.875 C 337.46875 189.746094 342.265625 194.265625 341.828125 200.847656 C 341.492188 203.808594 339.746094 206.417969 337.136719 207.855469 C 334.527344 209.292969 331.386719 209.375 328.707031 208.074219 C 326.09375 206.675781 326.414062 205.390625 328.707031 204.058594 C 330.53125 203.269531 331.453125 201.222656 330.839844 199.335938 C 330.101562 197.101562 328.074219 195.546875 325.726562 195.414062 C 322.566406 194.941406 319.347656 195.660156 316.6875 197.429688 C 308.292969 202.796875 303.589844 217.707031 307.511719 226.792969 C 309.804688 232.25 314.074219 233.285156 318.5 229.40625 C 320.941406 227.066406 322.785156 224.171875 323.867188 220.964844 C 324.515625 218.96875 325.433594 217.070312 326.597656 215.324219 C 328.683594 212.546875 331.574219 210.09375 335.199219 211.582031 C 338.824219 213.074219 336.964844 216.835938 336.367188 219.382812 C 334.234375 228.214844 332.421875 236.816406 339.902344 244.25 C 340.300781 244.613281 340.527344 245.128906 340.527344 245.671875 C 340.527344 246.210938 340.300781 246.726562 339.902344 247.09375 C 338.972656 248.003906 337.5625 248.207031 336.414062 247.597656 C 331.175781 245.757812 326.886719 241.914062 324.488281 236.90625 C 323.730469 235.257812 323.410156 232.847656 320.726562 235.210938 C 315.9375 240.117188 308.269531 240.753906 302.742188 236.703125 C 296.226562 232.527344 293.886719 226.265625 294.484375 218.761719 C 294.597656 217.296875 294.78125 215.875 294.964844 214.175781 C 287.464844 214.796875 281.363281 216.46875 277.074219 223.351562 C 273.351562 229.039062 268.285156 233.71875 262.324219 236.976562 C 254.5 241.5625 251.449219 240.140625 249.339844 231.539062 C 249.042969 230.347656 248.789062 229.246094 248.332031 226.953125 C 243.25 231.503906 237.433594 235.15625 231.128906 237.757812 C 219.269531 241.976562 212.386719 236.539062 214.128906 223.992188 C 215.207031 217.550781 216.984375 211.242188 219.429688 205.183594 C 219.980469 203.691406 221.308594 201.859375 219.429688 200.597656 C 218.050781 199.726562 216.605469 201.191406 215.53125 202.109375 C 208.210938 208.328125 201.765625 215.207031 199.65625 225.046875 C 199.164062 227.949219 198.335938 230.785156 197.179688 233.488281 C 195.746094 237.214844 191.960938 239.484375 188.003906 238.996094 C 183.875 238.261719 186.535156 234.039062 185.386719 231.449219 C 180.984375 233.742188 176.761719 236.035156 172.40625 238.03125 C 169.261719 239.476562 165.15625 240.625 162.863281 237.917969 C 159.03125 233.328125 156.441406 234.914062 152.402344 237.480469 C 146.507812 241.242188 139.742188 239.636719 134.394531 233.421875 C 131.6875 230.277344 130.289062 230.484375 127.675781 233.285156 C 122.378906 238.746094 116.089844 243.144531 109.140625 246.242188 C 81.867188 259.203125 55.050781 244.660156 53.539062 214.613281 C 51.75 180.6875 66.175781 153.6875 94.527344 134.855469 C 101.945312 129.703125 111.28125 128.148438 119.96875 130.609375 C 130.34375 133.324219 137.371094 142.980469 136.757812 153.6875 C 136.074219 163.910156 128.84375 172.515625 118.890625 174.953125 C 117.261719 175.316406 115.152344 175.960938 114.300781 174.421875 C 113.015625 172.359375 115.058594 170.960938 116.457031 169.835938 C 124.121094 163.367188 125.425781 154.949219 123.980469 145.703125 C 122.605469 137.078125 116.457031 133.59375 108.269531 136.734375 C 102.390625 139.175781 97.207031 143.027344 93.175781 147.953125 C 79.628906 162.921875 71.160156 181.789062 68.976562 201.859375 C 67.871094 210.523438 69.414062 219.320312 73.402344 227.089844 C 79.230469 238.214844 89.117188 243.148438 101.320312 240.257812 C 110.976562 237.84375 119.835938 232.957031 127.03125 226.082031 C 129.070312 223.949219 130.160156 221.089844 130.0625 218.144531 C 131.734375 200.710938 146.804688 187.636719 163.644531 188.921875 C 167.703125 189.046875 171.574219 190.683594 174.492188 193.507812 C 177.335938 196.167969 178.191406 200.335938 176.625 203.898438 C 174.996094 207.84375 171.371094 209.128906 167.265625 208.921875 C 165.523438 209.113281 163.800781 208.414062 162.679688 207.066406 C 161.164062 204.769531 164.054688 204.609375 164.972656 203.464844 C 167.542969 200.253906 166.097656 196.421875 161.691406 195.527344 C 157.257812 194.53125 152.625 196.003906 149.582031 199.378906 C 143.253906 205.804688 140.390625 214.871094 141.875 223.765625 C 142.332031 227.160156 143.777344 230.484375 147.515625 231.496094 C 151.257812 232.503906 153.6875 229.707031 155.980469 227.089844 C 157.679688 224.921875 158.90625 222.421875 159.582031 219.75 C 160.132812 217.242188 161.496094 214.980469 163.460938 213.328125 C 165.753906 211.5625 168.277344 210.117188 170.984375 211.699219 C 173.691406 213.28125 172.039062 215.941406 172.039062 218.144531 C 172.039062 222.179688 167.679688 226.882812 173.070312 229.980469 C 175.960938 231.632812 187.613281 222.847656 188.53125 218.71875 C 189.976562 212.132812 191.144531 205.480469 192.453125 198.875 C 192.613281 196.546875 193.496094 194.328125 194.976562 192.523438 C 197.257812 189.921875 200.914062 189.007812 204.152344 190.226562 C 207.617188 191.671875 205.894531 194.816406 205.550781 197.476562 C 205.367188 199.058594 205.09375 200.664062 204.65625 203.371094 Z M 282.140625 188.09375 C 281.546875 186.488281 280.582031 184.929688 278.609375 185.136719 C 276.636719 185.34375 276.0625 187.15625 275.902344 188.851562 C 275.390625 193.949219 277.34375 198.988281 281.15625 202.410156 C 283.320312 197.945312 283.675781 192.8125 282.140625 188.09375 Z M 282.140625 188.09375 "/>
</g>
</svg>
