<?xml version="1.0" encoding="UTF-8"?>
<svg xmlns="http://www.w3.org/2000/svg" xmlns:xlink="http://www.w3.org/1999/xlink" width="400pt" height="599pt" viewBox="0 0 400 599" version="1.1">
<g id="surface1">
<path style=" stroke:none;fill-rule:nonzero;fill:rgb(3.921569%,81.176471%,51.372549%);fill-opacity:1;" d="M 100.019531 599 C 155.207031 599 200 554.273438 200 499.167969 L 200 399.332031 L 100.019531 399.332031 C 44.832031 399.332031 0.0390625 444.058594 0.0390625 499.167969 C 0.0390625 554.273438 44.832031 599 100.019531 599 Z M 100.019531 599 "/>
<path style=" stroke:none;fill-rule:nonzero;fill:rgb(63.529412%,34.901961%,100%);fill-opacity:1;" d="M 0.0390625 299.5 C 0.0390625 244.390625 44.832031 199.667969 100.019531 199.667969 L 200 199.667969 L 200 399.332031 L 100.019531 399.332031 C 44.832031 399.332031 0.0390625 354.609375 0.0390625 299.5 Z M 0.0390625 299.5 "/>
<path style=" stroke:none;fill-rule:nonzero;fill:rgb(94.901961%,30.588235%,11.764706%);fill-opacity:1;" d="M 0.0390625 99.832031 C 0.0390625 44.726562 44.832031 0 100.019531 0 L 200 0 L 200 199.667969 L 100.019531 199.667969 C 44.832031 199.667969 0.0390625 154.941406 0.0390625 99.832031 Z M 0.0390625 99.832031 "/>
<path style=" stroke:none;fill-rule:nonzero;fill:rgb(100%,44.705882%,38.431373%);fill-opacity:1;" d="M 200 0 L 299.980469 0 C 355.167969 0 399.960938 44.726562 399.960938 99.832031 C 399.960938 154.941406 355.167969 199.667969 299.980469 199.667969 L 200 199.667969 Z M 200 0 "/>
<path style=" stroke:none;fill-rule:nonzero;fill:rgb(10.196078%,73.72549%,99.607843%);fill-opacity:1;" d="M 399.960938 299.5 C 399.960938 354.609375 355.167969 399.332031 299.980469 399.332031 C 244.792969 399.332031 200 354.609375 200 299.5 C 200 244.390625 244.792969 199.667969 299.980469 199.667969 C 355.167969 199.667969 399.960938 244.390625 399.960938 299.5 Z M 399.960938 299.5 "/>
</g>
</svg>
